Coordinates
version=1
nRows=29
nColumns=24
inDegrees=yes

Units are S.I. units (second, meters, Newtons, ...)
Angles are in degrees.

endheader
time	pelvis_tilt	pelvis_list	pelvis_rotation	pelvis_tx	pelvis_ty	pelvis_tz	hip_flexion_r	hip_adduction_r	hip_rotation_r	knee_angle_r	ankle_angle_r	subtalar_angle_r	mtp_angle_r	hip_flexion_l	hip_adduction_l	hip_rotation_l	knee_angle_l	ankle_angle_l	subtalar_angle_l	mtp_angle_l	lumbar_extension	lumbar_bending	lumbar_rotation
      4.78500000	     12.29167860	      2.50150304	      0.73938546	      0.59753778	      0.94288946	     -0.33003468	      3.23712754	     -6.57834821	     -7.71894168	    -59.55312065	     18.61360003	     -5.02031213	      0.00000000	    -10.50966502	      6.20887198	      4.01548406	    -13.18702720	     19.12863844	      1.88837812	      0.00000000	    -26.75898381	     -2.47662065	     -5.58631984
      4.79000000	     12.28057692	      2.32420852	      1.10605767	      0.60366164	      0.94328274	     -0.33048601	      3.82956426	     -6.35960887	     -8.17963561	    -58.62370038	     19.11911344	     -4.82752416	      0.00000000	    -11.09866251	      5.91441174	      4.16926760	    -12.78402317	     19.23543461	      2.16456258	      0.00000000	    -26.76796905	     -2.09942461	     -6.06545852
      4.79500000	     12.22405736	      2.15454734	      1.33535823	      0.60984382	      0.94353702	     -0.33085457	      4.48518401	     -6.15807585	     -8.50386867	    -57.65188254	     19.59427148	     -4.49547632	      0.00000000	    -11.65289269	      5.65997700	      4.18333021	    -12.34520125	     19.35294114	      2.35738339	      0.00000000	    -26.70514453	     -1.77919972	     -6.36864129
      4.80000000	     12.26130873	      2.00426174	      1.80534950	      0.61591489	      0.94387816	     -0.33135851	      4.94563018	     -5.97229663	     -9.06952645	    -56.53962792	     20.06641629	     -4.28532620	      0.00000000	    -12.26851096	      5.35527892	      4.38208915	    -11.98044632	     19.47826426	      2.69188282	      0.00000000	    -26.78184837	     -1.39331339	     -6.95735159
      4.80500000	     12.19426242	      1.86189940	      1.99011279	      0.62205552	      0.94398099	     -0.33166410	      5.57840390	     -5.79505026	     -9.32895318	    -55.43207249	     20.52741321	     -3.87234387	      0.00000000	    -12.79581920	      5.13532048	      4.34373640	    -11.56139007	     19.57636756	      2.85092146	      0.00000000	    -26.71334197	     -1.12215178	     -7.19886301
      4.81000000	     12.31570119	      1.71073806	      2.48708812	      0.62812626	      0.94430636	     -0.33218469	      5.87562835	     -5.60941389	     -9.91494198	    -54.13729352	     20.97784508	     -3.55923092	      0.00000000	    -13.49242124	      4.81100275	      4.56788425	    -11.20559047	     19.70588405	      3.11493531	      0.00000000	    -26.88292754	     -0.72049811	     -7.77407095
      4.81500000	     12.22255127	      1.60485504	      2.66483419	      0.63421907	      0.94425735	     -0.33238720	      6.48980598	     -5.45765892	    -10.13248357	    -52.89036162	     21.40714045	     -3.10614769	      0.00000000	    -13.96980699	      4.61803463	      4.48292078	    -10.82214765	     19.81362316	      3.35509292	      0.00000000	    -26.79808894	     -0.50571830	     -8.00630476
      4.82000000	     12.26684090	      1.48905348	      3.10746589	      0.64026204	      0.94436973	     -0.33275875	      6.84005292	     -5.29618357	    -10.61892641	    -51.47520594	     21.81098810	     -2.76713221	      0.00000000	    -14.56153419	      4.32657980	      4.58830800	    -10.49922059	     19.96025180	      3.72189924	      0.00000000	    -26.88542750	     -0.18430592	     -8.52339744
      4.82500000	     12.29318989	      1.38490597	      3.42363866	      0.64632546	      0.94437189	     -0.33304916	      7.21344390	     -5.14263590	    -10.96187734	    -50.01685127	     22.21402691	     -2.31041299	      0.00000000	    -15.14190302	      4.08550379	      4.61985593	    -10.16107143	     20.08273020	      3.96465931	      0.00000000	    -26.94643628	      0.08505280	     -8.87618439
      4.83000000	     12.27664583	      1.29489173	      3.69822757	      0.65235564	      0.94424559	     -0.33326681	      7.62048117	     -4.99526507	    -11.23797199	    -48.50258986	     22.61912677	     -1.85240614	      0.00000000	    -15.66064983	      3.87078887	      4.60920645	     -9.85249110	     20.23051593	      4.18490093	      0.00000000	    -26.96812885	      0.31059071	     -9.15701730
      4.83500000	     12.30642430	      1.21445360	      4.02411449	      0.65840983	      0.94416467	     -0.33349363	      7.92341210	     -4.85200786	    -11.54598825	    -46.89074738	     22.92978896	     -1.40691452	      0.00000000	    -16.22905613	      3.63942801	      4.63732702	     -9.54178245	     20.32715971	      4.44831563	      0.00000000	    -27.03869760	      0.54999960	     -9.53622423
      4.84000000	     12.22225612	      1.15784936	      4.19370316	      0.66446446	      0.94383858	     -0.33360671	      8.37005629	     -4.72930916	    -11.66963765	    -45.26963374	     23.24456873	     -0.89261215	      0.00000000	    -16.67425371	      3.49554644	      4.57070863	     -9.24165754	     20.44423465	      4.57295047	      0.00000000	    -26.98175912	      0.69616598	     -9.70786563
      4.84500000	     12.33171759	      1.09041269	      4.61157267	      0.67048714	      0.94375164	     -0.33383327	      8.48648533	     -4.58662070	    -12.03986247	    -43.47172511	     23.52247579	     -0.50728994	      0.00000000	    -17.29420721	      3.23026155	      4.63233333	     -8.99428619	     20.58636328	      4.89711102	      0.00000000	    -27.15465864	      0.94990953	    -10.15591189
      4.85000000	     12.24306848	      1.05852004	      4.75982992	      0.67652871	      0.94330941	     -0.33387483	      8.87345820	     -4.47526661	    -12.09382572	    -41.71456039	     23.77146443	      0.00593445	      0.00000000	    -17.71559771	      3.11541566	      4.56214550	     -8.73730047	     20.69260467	      4.98995502	      0.00000000	    -27.10459024	      1.05465317	    -10.29232204
      4.85500000	     12.39989188	      1.01069083	      5.17311603	      0.68257730	      0.94316598	     -0.33405246	      8.86142815	     -4.33520986	    -12.41517306	    -39.76912283	     23.96660131	      0.36585750	      0.00000000	    -18.37529521	      2.85688490	      4.61856913	     -8.51645787	     20.84387204	      5.29663890	      0.00000000	    -27.33268898	      1.28564760	    -10.71657447
      4.86000000	     12.30178282	      1.00605797	      5.31648594	      0.68862976	      0.94260383	     -0.33403479	      9.18622952	     -4.24011645	    -12.41330831	    -37.88568138	     24.13155459	      0.84034705	      0.00000000	    -18.76535193	      2.76752224	      4.54854772	     -8.31186905	     20.95984107	      5.38334978	      0.00000000	    -27.28075005	      1.35001101	    -10.83367450
      4.86500000	     12.47095413	      0.99043579	      5.71219077	      0.69470080	      0.94235599	     -0.33415252	      9.09066133	     -4.11701936	    -12.66091752	    -35.82206896	     24.23103036	      1.15554555	      0.00000000	    -19.42273925	      2.53587123	      4.59277616	     -8.13055471	     21.12016741	      5.67076280	      0.00000000	    -27.52608428	      1.53795633	    -11.22141816
      4.87000000	     12.44941121	      1.00209772	      5.92535962	      0.70080592	      0.94177259	     -0.33413460	      9.22870428	     -4.02575216	    -12.69102963	    -33.78982353	     24.31994541	      1.53167241	      0.00000000	    -19.87214727	      2.42083252	      4.56669137	     -7.98355547	     21.29088542	      5.82223318	      0.00000000	    -27.56001955	      1.60684313	    -11.37271310
      4.87500000	     12.55284932	      1.04029981	      6.22092377	      0.70691053	      0.94132578	     -0.33413778	      9.16413804	     -3.94890340	    -12.78225118	    -31.67226528	     24.26743500	      1.81549764	      0.00000000	    -20.45283597	      2.27897865	      4.58149232	     -7.83690547	     21.41256175	      6.02742255	      0.00000000	    -27.73762186	      1.69480859	    -11.69452588
      4.88000000	     12.44975237	      1.09626092	      6.38343106	      0.71305996	      0.94054838	     -0.33405066	      9.34055308	     -3.90194246	    -12.68750000	    -29.59260733	     24.17313085	      2.12824849	      0.00000000	    -20.80176672	      2.23323455	      4.53530819	     -7.73650072	     21.55060806	      6.11609607	      0.00000000	    -27.68564570	      1.68967083	    -11.82861103
      4.88500000	     12.64632740	      1.18714612	      6.72460722	      0.71919403	      0.94007906	     -0.33404333	      9.08890570	     -3.86626497	    -12.76979364	    -27.39205358	     24.04181975	      2.32049433	      0.00000000	    -21.46233806	      2.10344317	      4.60632464	     -7.64784606	     21.69675644	      6.34520148	      0.00000000	    -27.97901465	      1.74367340	    -12.16738677
      4.89000000	     12.53572531	      1.28124364	      6.90784131	      0.72543226	      0.93918122	     -0.33391986	      9.20027441	     -3.85510061	    -12.62988097	    -25.26343556	     23.80406799	      2.47313464	      0.00000000	    -21.78704459	      2.07881838	      4.58200102	     -7.60454745	     21.86927783	      6.47201359	      0.00000000	    -27.91212183	      1.69745252	    -12.32832002
      4.89500000	     12.54368943	      1.41576342	      7.17546950	      0.73166068	      0.93837478	     -0.33381501	      9.12603152	     -3.87793892	    -12.55467552	    -23.09722474	     23.49785175	      2.52228030	      0.00000000	    -22.22421671	      2.03503962	      4.62197303	     -7.59564999	     22.05604251	      6.69980998	      0.00000000	    -27.98682534	      1.64921979	    -12.62144086
      4.90000000	     12.60265738	      1.57497119	      7.43811864	      0.73793115	      0.93757205	     -0.33373498	      8.96491322	     -3.92677803	    -12.45338820	    -20.93442600	     23.15101548	      2.58972617	      0.00000000	    -22.71462632	      2.00977515	      4.69694276	     -7.60582602	     22.19120010	      6.86743906	      0.00000000	    -28.12943833	      1.58643093	    -12.86666710
      4.90500000	     12.66309998	      1.76981852	      7.67534138	      0.74424739	      0.93670536	     -0.33364969	      8.78721318	     -4.02357244	    -12.36274319	    -18.81401515	     22.72515453	      2.65799351	      0.00000000	    -23.21118111	      2.02588159	      4.75134275	     -7.62586819	     22.33762119	      7.03015717	      0.00000000	    -28.26597818	      1.47321697	    -13.08466590
      4.91000000	     12.57913398	      2.00631419	      7.85963362	      0.75062552	      0.93560729	     -0.33346396	      8.77337930	     -4.17257608	    -12.10793041	    -16.78055948	     22.27784755	      2.58508961	      0.00000000	    -23.54479518	      2.11877836	      4.80233051	     -7.69139383	     22.49519033	      7.16953750	      0.00000000	    -28.24177503	      1.27475513	    -13.35387543
      4.91500000	     12.53495809	      2.24986415	      8.09019508	      0.75705078	      0.93453291	     -0.33332805	      8.68187465	     -4.33756177	    -11.90956131	    -14.77919383	     21.74099738	      2.47438821	      0.00000000	    -23.90794178	      2.18743251	      4.88307435	     -7.79422371	     22.64861451	      7.36347863	      0.00000000	    -28.26237369	      1.09191431	    -13.62446446
      4.92000000	     12.67400361	      2.45274570	      8.38137623	      0.76360522	      0.93362860	     -0.33332821	      8.33876269	     -4.45537831	    -11.84907441	    -12.78545535	     21.15500252	      2.45883519	      0.00000000	    -24.47295746	      2.15864726	      5.01507127	     -7.89010068	     22.79437573	      7.56187871	      0.00000000	    -28.46373226	      1.01931501	    -13.88410491
      4.92500000	     12.57805854	      2.76937099	      8.55538631	      0.77007994	      0.93239509	     -0.33313724	      8.31222190	     -4.71951253	    -11.57304006	    -11.00297774	     20.58351986	      2.30592961	      0.00000000	    -24.76825920	      2.32073814	      5.09743461	     -8.06209053	     22.93686708	      7.75790454	      0.00000000	    -28.44198555	      0.73040309	    -14.15665007
